<?xml version="1.0" encoding="utf-8"?>
<!-- Generator: Adobe Illustrator 21.0.0, SVG Export Plug-In . SVG Version: 6.00 Build 0)  -->
<svg version="1.1" id="Camada_1" xmlns="http://www.w3.org/2000/svg" xmlns:xlink="http://www.w3.org/1999/xlink" x="0px" y="0px"
	 viewBox="0 0 66 85" style="enable-background:new 0 0 66 85;" xml:space="preserve">
<style type="text/css">
	.st0{fill:none;stroke:#58BBF3;stroke-width:3;}
	.st1{fill:none;stroke:#58BBF3;stroke-width:2;stroke-linecap:round;stroke-linejoin:round;}
	.st2{fill:#58BBF3;stroke:#58BBF3;}
</style>
<path class="st0" d="M5,9.5h56c1.9,0,3.5,1.6,3.5,3.5v26c0,1.9-1.6,3.5-3.5,3.5H5c-1.9,0-3.5-1.6-3.5-3.5V13C1.5,11.1,3.1,9.5,5,9.5
	z"/>
<path class="st0" d="M28,42.5h-1.5V44v36c0,1.9,1.6,3.5,3.5,3.5h6c1.9,0,3.5-1.6,3.5-3.5V44v-1.5H38H28z"/>
<path class="st0" d="M28,9.5h-1.5V8V5c0-1.9,1.6-3.5,3.5-3.5h6c1.9,0,3.5,1.6,3.5,3.5v3v1.5H38H28z"/>
<path class="st1" d="M24,31l-5-5l5-5"/>
<path class="st1" d="M42,21l5,5l-5,5"/>
<path class="st2" d="M36.6,18.9l0.1,0.1c0.3,0.1,0.4,0.4,0.2,0.7l-6.2,13.3c-0.1,0.3-0.4,0.4-0.7,0.2l-0.1-0.1
	c-0.3-0.1-0.4-0.4-0.2-0.7l6.2-13.3C36,18.9,36.3,18.8,36.6,18.9z"/>
</svg>
